<?xml version="1.0" encoding="UTF-8" standalone="no"?>
<svg
   width="200"
   viewBox="0 0 200 200"
   height="200"
   version="1.0"
   id="svg150"
   sodipodi:docname="favicon.svg"
   inkscape:version="1.1 (c68e22c387, 2021-05-23)"
   xmlns:inkscape="http://www.inkscape.org/namespaces/inkscape"
   xmlns:sodipodi="http://sodipodi.sourceforge.net/DTD/sodipodi-0.dtd"
   xmlns="http://www.w3.org/2000/svg"
   xmlns:svg="http://www.w3.org/2000/svg">
  <defs
     id="defs154" />
  <sodipodi:namedview
     id="namedview152"
     pagecolor="#ffffff"
     bordercolor="#666666"
     borderopacity="1.0"
     inkscape:pageshadow="2"
     inkscape:pageopacity="0.0"
     inkscape:pagecheckerboard="0"
     showgrid="false"
     inkscape:zoom="1.4198704"
     inkscape:cx="35.918771"
     inkscape:cy="172.19881"
     inkscape:window-width="1920"
     inkscape:window-height="1017"
     inkscape:window-x="3832"
     inkscape:window-y="-8"
     inkscape:window-maximized="1"
     inkscape:current-layer="svg150"
     width="200px"
     showguides="false" />
  <rect
     style="fill:#f9f9f9;stroke-width:1.08997;stroke-linecap:round;stroke-linejoin:round;stroke-dasharray:2.17994, 1.08997"
     id="rect991"
     width="190.86249"
     height="190.86249"
     x="4.5687561"
     y="4.5687561"
     inkscape:export-filename="C:\Users\83198245168.CBM-DF\OneDrive\12 - Imagens SVG ðŸ–¼ï¸\rect991.png"
     inkscape:export-xdpi="96"
     inkscape:export-ydpi="96" />
  <g
     id="g1217"
     transform="matrix(0.60578026,0,0,0.60578026,-13.583761,2.2865198)"
     inkscape:export-filename="C:\Users\83198245168.CBM-DF\OneDrive\12 - Imagens SVG ðŸ–¼ï¸\rect991.png"
     inkscape:export-xdpi="96"
     inkscape:export-ydpi="96">
    <g
       fill="#322c4d"
       id="g1079"
       transform="translate(0,-28)">
      <g
         id="g1077">
        <g
           id="g1075">
          <path
             d="m 7.546875,-6.984375 h -2.8125 V 0 H 3.078125 V -6.984375 H 0.28125 V -8.28125 h 7.265625 z m 0,0"
             transform="translate(101.133,240.125)"
             id="path1073" />
        </g>
      </g>
    </g>
    <g
       fill="#322c4d"
       id="g1087"
       transform="translate(0,-28)">
      <g
         id="g1085">
        <g
           id="g1083">
          <path
             d="M 7.046875,-1.3125 V 0 H 1.0625 v -8.28125 h 5.859375 v 1.296875 H 2.71875 v 2.1875 H 6.625 v 1.3125 H 2.71875 V -1.3125 Z m 0,0"
             transform="translate(114.609,240.125)"
             id="path1081" />
        </g>
      </g>
    </g>
    <g
       fill="#322c4d"
       id="g1095"
       transform="translate(0,-28)">
      <g
         id="g1093">
        <g
           id="g1091">
          <path
             d="m 4.625,-8.453125 c 1.070312,0 1.910156,0.265625 2.515625,0.796875 0.613281,0.523438 0.96875,1.210938 1.0625,2.0625 v 0.125 h -1.65625 l -0.015625,-0.125 c -0.21875,-1.082031 -0.867188,-1.625 -1.9375,-1.625 -0.667969,0 -1.210938,0.273438 -1.625,0.8125 -0.40625,0.542969 -0.609375,1.28125 -0.609375,2.21875 0,1 0.203125,1.773438 0.609375,2.3125 0.414062,0.542969 0.953125,0.8125 1.609375,0.8125 0.519531,0 0.941406,-0.144531 1.265625,-0.4375 0.320312,-0.300781 0.535156,-0.71875 0.640625,-1.25 l 0.03125,-0.125 H 8.15625 L 8.140625,-2.75 C 8.054688,-1.851562 7.691406,-1.140625 7.046875,-0.609375 6.398438,-0.0859375 5.550781,0.171875 4.5,0.171875 c -1.167969,0 -2.109375,-0.382813 -2.828125,-1.15625 -0.710937,-0.769531 -1.0625,-1.804687 -1.0625,-3.109375 0,-1.320312 0.375,-2.378906 1.125,-3.171875 0.757813,-0.789063 1.722656,-1.1875 2.890625,-1.1875 z m 0,0"
             transform="translate(128,240.125)"
             id="path1089" />
        </g>
      </g>
    </g>
    <g
       fill="#322c4d"
       id="g1103"
       transform="translate(0,-28)">
      <g
         id="g1101">
        <g
           id="g1099">
          <path
             d="M 8.25,-8.28125 V 0 H 6.59375 v -3.390625 h -3.875 V 0 H 1.0625 v -8.28125 h 1.65625 v 3.5625 h 3.875 v -3.5625 z m 0,0"
             transform="translate(142.617,240.125)"
             id="path1097" />
        </g>
      </g>
    </g>
    <g
       fill="#322c4d"
       id="g1111"
       transform="translate(0,-28)">
      <g
         id="g1109">
        <g
           id="g1107">
          <path
             d="M 8.34375,0 H 6.078125 L 2.65625,-6.28125 c 0.039062,0.75 0.0625,1.59375 0.0625,2.53125 V 0 H 1.0625 V -8.28125 H 3.265625 L 6.75,-1.875 C 6.707031,-2.613281 6.6875,-3.476562 6.6875,-4.46875 v -3.8125 h 1.640625 z m 0,0"
             transform="translate(157.64,240.125)"
             id="path1105" />
        </g>
      </g>
    </g>
    <g
       fill="#322c4d"
       id="g1119"
       transform="translate(0,-28)">
      <g
         id="g1117">
        <g
           id="g1115">
          <path
             d="m 4.703125,-8.453125 c 1.257813,0 2.253906,0.390625 2.984375,1.171875 0.738281,0.78125 1.109375,1.828125 1.109375,3.140625 0,1.304687 -0.371094,2.351563 -1.109375,3.140625 -0.730469,0.78125 -1.726562,1.171875 -2.984375,1.171875 -1.261719,0 -2.261719,-0.390625 -3,-1.171875 -0.730469,-0.789062 -1.09375,-1.835938 -1.09375,-3.140625 0,-1.3125 0.363281,-2.359375 1.09375,-3.140625 0.726563,-0.78125 1.726563,-1.171875 3,-1.171875 z M 2.96875,-1.875 c 0.414062,0.542969 0.992188,0.8125 1.734375,0.8125 0.738281,0 1.316406,-0.269531 1.734375,-0.8125 0.414062,-0.550781 0.625,-1.304688 0.625,-2.265625 0,-0.96875 -0.210938,-1.722656 -0.625,-2.265625 -0.417969,-0.539062 -0.996094,-0.8125 -1.734375,-0.8125 -0.742187,0 -1.320313,0.273438 -1.734375,0.8125 -0.417969,0.542969 -0.625,1.296875 -0.625,2.265625 0,0.96875 0.207031,1.726563 0.625,2.265625 z m 0,0"
             transform="translate(172.76,240.125)"
             id="path1113" />
        </g>
      </g>
    </g>
    <g
       fill="#322c4d"
       id="g1127"
       transform="translate(0,-28)">
      <g
         id="g1125">
        <g
           id="g1123">
          <path
             d="M 7.046875,-1.375 V 0 H 1.0625 V -8.28125 H 2.71875 V -1.375 Z m 0,0"
             transform="translate(187.94,240.125)"
             id="path1121" />
        </g>
      </g>
    </g>
    <g
       fill="#322c4d"
       id="g1135"
       transform="translate(0,-28)">
      <g
         id="g1133">
        <g
           id="g1131">
          <path
             d="m 4.703125,-8.453125 c 1.257813,0 2.253906,0.390625 2.984375,1.171875 0.738281,0.78125 1.109375,1.828125 1.109375,3.140625 0,1.304687 -0.371094,2.351563 -1.109375,3.140625 -0.730469,0.78125 -1.726562,1.171875 -2.984375,1.171875 -1.261719,0 -2.261719,-0.390625 -3,-1.171875 -0.730469,-0.789062 -1.09375,-1.835938 -1.09375,-3.140625 0,-1.3125 0.363281,-2.359375 1.09375,-3.140625 0.726563,-0.78125 1.726563,-1.171875 3,-1.171875 z M 2.96875,-1.875 c 0.414062,0.542969 0.992188,0.8125 1.734375,0.8125 0.738281,0 1.316406,-0.269531 1.734375,-0.8125 0.414062,-0.550781 0.625,-1.304688 0.625,-2.265625 0,-0.96875 -0.210938,-1.722656 -0.625,-2.265625 -0.417969,-0.539062 -0.996094,-0.8125 -1.734375,-0.8125 -0.742187,0 -1.320313,0.273438 -1.734375,0.8125 -0.417969,0.542969 -0.625,1.296875 -0.625,2.265625 0,0.96875 0.207031,1.726563 0.625,2.265625 z m 0,0"
             transform="translate(201.189,240.125)"
             id="path1129" />
        </g>
      </g>
    </g>
    <g
       fill="#322c4d"
       id="g1143"
       transform="translate(0,-28)">
      <g
         id="g1141">
        <g
           id="g1139">
          <path
             d="m 4.859375,-4.21875 h 3.34375 V 0 H 6.859375 L 6.75,-1.34375 6.390625,-0.5 C 5.929688,-0.0507812 5.257812,0.171875 4.375,0.171875 c -1.15625,0 -2.074219,-0.378906 -2.75,-1.140625 -0.679688,-0.769531 -1.015625,-1.8125 -1.015625,-3.125 0,-1.320312 0.382813,-2.378906 1.15625,-3.171875 0.769531,-0.789063 1.742187,-1.1875 2.921875,-1.1875 1.082031,0 1.925781,0.265625 2.53125,0.796875 0.613281,0.523438 0.960938,1.210938 1.046875,2.0625 l 0.015625,0.125 H 6.625 l -0.03125,-0.125 c -0.210938,-1.082031 -0.851562,-1.625 -1.921875,-1.625 -0.6875,0 -1.246094,0.277344 -1.671875,0.828125 -0.429688,0.542969 -0.640625,1.277344 -0.640625,2.203125 0,1 0.207031,1.773438 0.625,2.3125 0.414063,0.542969 0.960937,0.8125 1.640625,0.8125 0.53125,0 0.972656,-0.160156 1.328125,-0.484375 0.351563,-0.332031 0.570313,-0.789063 0.65625,-1.375 h -1.75 z m 0,0"
             transform="translate(216.369,240.125)"
             id="path1137" />
        </g>
      </g>
    </g>
    <g
       fill="#322c4d"
       id="g1151"
       transform="translate(0,-28)">
      <g
         id="g1149">
        <g
           id="g1147">
          <path
             d="M 2.71875,0 H 1.0625 v -8.28125 h 1.65625 z m 0,0"
             transform="translate(231.213,240.125)"
             id="path1145" />
        </g>
      </g>
    </g>
    <g
       fill="#322c4d"
       id="g1159"
       transform="translate(0,-28)">
      <g
         id="g1157">
        <g
           id="g1155">
          <path
             d="M 7.046875,-1.3125 V 0 H 1.0625 v -8.28125 h 5.859375 v 1.296875 H 2.71875 v 2.1875 H 6.625 v 1.3125 H 2.71875 V -1.3125 Z m 0,0"
             transform="translate(240.717,240.125)"
             id="path1153" />
        </g>
      </g>
    </g>
    <g
       fill="#322c4d"
       id="g1167"
       transform="translate(0,-28)">
      <g
         id="g1165">
        <g
           id="g1163">
          <path
             d="m 3.8125,-8.453125 c 0.945312,0 1.671875,0.242187 2.171875,0.71875 0.5,0.46875 0.796875,1.101563 0.890625,1.890625 H 5.1875 c -0.054688,-0.425781 -0.199219,-0.757812 -0.4375,-1 -0.242188,-0.25 -0.574219,-0.375 -1,-0.375 -0.34375,0 -0.625,0.089844 -0.84375,0.265625 -0.210938,0.167969 -0.3125,0.40625 -0.3125,0.71875 0,0.355469 0.128906,0.636719 0.390625,0.84375 0.257813,0.199219 0.71875,0.371094 1.375,0.515625 0.90625,0.210938 1.570313,0.527344 2,0.953125 C 6.785156,-3.492188 7,-2.945312 7,-2.28125 c 0,0.75 -0.296875,1.351562 -0.890625,1.796875 -0.59375,0.4375 -1.320313,0.65625 -2.171875,0.65625 -1.011719,0 -1.820312,-0.21875 -2.421875,-0.65625 C 0.921875,-0.929688 0.582031,-1.585938 0.5,-2.453125 h 1.703125 c 0.082031,0.449219 0.28125,0.792969 0.59375,1.03125 0.3125,0.242187 0.679687,0.359375 1.109375,0.359375 0.382812,0 0.707031,-0.09375 0.96875,-0.28125 0.257812,-0.195312 0.390625,-0.453125 0.390625,-0.765625 0,-0.351563 -0.125,-0.632813 -0.375,-0.84375 C 4.640625,-3.171875 4.210938,-3.351562 3.609375,-3.5 2.679688,-3.726562 1.988281,-4.023438 1.53125,-4.390625 1.082031,-4.765625 0.859375,-5.3125 0.859375,-6.03125 c 0,-0.726562 0.285156,-1.3125 0.859375,-1.75 0.570312,-0.445312 1.269531,-0.671875 2.09375,-0.671875 z m 0,0"
             transform="translate(254.109,240.125)"
             id="path1161" />
        </g>
      </g>
    </g>
    <g
       fill="#322c4d"
       id="g1175">
      <g
         id="g1173">
        <g
           id="g1171">
          <path
             d="M 7.5625,0.703125 C 5.945312,0.703125 4.59375,0.15625 3.5,-0.9375 L 22.90625,-28.125 4.515625,-53.921875 C 5.554688,-54.804688 6.832031,-55.25 8.34375,-55.25 c 1.082031,0 2.078125,0.210938 2.984375,0.625 0.914063,0.417969 1.632813,0.992188 2.15625,1.71875 l 13.09375,18.78125 -1.796875,2.40625 0.546875,0.390625 L 40.4375,-52.90625 c 0.519531,-0.726562 1.234375,-1.300781 2.140625,-1.71875 0.914063,-0.414062 1.914063,-0.625 3,-0.625 0.675781,0 1.363281,0.121094 2.0625,0.359375 0.707031,0.230469 1.296875,0.554687 1.765625,0.96875 L 31.015625,-28.125 50.421875,-0.9375 c -1.09375,1.09375 -2.449219,1.640625 -4.0625,1.640625 -0.9375,0 -1.808594,-0.226563 -2.609375,-0.671875 -0.804688,-0.4375 -1.492188,-1.046875 -2.0625,-1.828125 l -14.71875,-20.875 -14.734375,20.875 c -0.574219,0.78125 -1.261719,1.390625 -2.0625,1.828125 C 9.367188,0.476562 8.5,0.703125 7.5625,0.703125 Z m 0,0"
             transform="translate(43.758,185.366)"
             id="path1169" />
        </g>
      </g>
    </g>
    <g
       fill="#322c4d"
       id="g1183">
      <g
         id="g1181">
        <g
           id="g1179">
          <path
             d="M 8.5,0.703125 C 6.9375,0.390625 5.710938,-0.269531 4.828125,-1.28125 3.941406,-2.300781 3.5,-3.535156 3.5,-4.984375 c 0,-0.988281 0.234375,-2.03125 0.703125,-3.125 l 18.625,-44.796875 c 0.625,-1.5625 1.820313,-2.34375 3.59375,-2.34375 1.65625,0 2.820313,0.78125 3.5,2.34375 l 18.625,44.796875 c 0.46875,1.09375 0.703125,2.136719 0.703125,3.125 0,1.398437 -0.445312,2.617187 -1.328125,3.65625 -0.886719,1.042969 -2.105469,1.71875 -3.65625,2.03125 L 37.5625,-15.578125 H 15.1875 Z M 35.296875,-21.890625 25.25,-47.375 l -0.625,0.234375 1.40625,3.578125 -8.578125,21.671875 z m 0,0"
             transform="translate(97.669,185.366)"
             id="path1177" />
        </g>
      </g>
    </g>
    <g
       fill="#322c4d"
       id="g1191">
      <g
         id="g1189">
        <g
           id="g1187">
          <path
             d="m 25.953125,0.703125 c -4.3125,0 -8.171875,-0.84375 -11.578125,-2.53125 -3.40625,-1.6875 -6.074219,-4.023437 -8,-7.015625 C 4.457031,-11.832031 3.5,-15.144531 3.5,-18.78125 v -17.140625 c 0,-3.632813 0.957031,-6.921875 2.875,-9.859375 1.925781,-2.9375 4.59375,-5.25 8,-6.9375 3.40625,-1.6875 7.265625,-2.53125 11.578125,-2.53125 4.363281,0 8.242187,0.84375 11.640625,2.53125 3.40625,1.6875 6.066406,4 7.984375,6.9375 1.925781,2.9375 2.890625,6.226562 2.890625,9.859375 v 17.140625 c 0,3.636719 -0.964844,6.949219 -2.890625,9.9375 -1.917969,2.992188 -4.589844,5.328125 -8.015625,7.015625 -3.429688,1.6875 -7.296875,2.53125 -11.609375,2.53125 z m 0,-6.390625 c 4.820313,0 8.582031,-1.191406 11.28125,-3.578125 2.707031,-2.394531 4.0625,-5.59375 4.0625,-9.59375 v -16.90625 c 0,-4 -1.355469,-7.179687 -4.0625,-9.546875 -2.699219,-2.363281 -6.460937,-3.546875 -11.28125,-3.546875 -4.78125,0 -8.527344,1.183594 -11.234375,3.546875 -2.699219,2.367188 -4.046875,5.546875 -4.046875,9.546875 v 16.90625 c 0,4 1.347656,7.199219 4.046875,9.59375 2.707031,2.386719 6.453125,3.578125 11.234375,3.578125 z m 0,0"
             transform="translate(150.411,185.366)"
             id="path1185" />
        </g>
      </g>
    </g>
    <g
       fill="#322c4d"
       id="g1199">
      <g
         id="g1197">
        <g
           id="g1195">
          <path
             d="m 5.453125,-48.9375 c 0,-1.96875 0.609375,-3.507812 1.828125,-4.625 C 8.5,-54.6875 10.203125,-55.25 12.390625,-55.25 L 42.625,-9.265625 l 0.546875,-0.46875 -2.265625,-3.75 V -55.25 c 2.394531,0 4.203125,0.523438 5.421875,1.5625 1.21875,1.042969 1.828125,2.546875 1.828125,4.515625 V -5.0625 c 0,1.65625 -0.585938,3.03125 -1.75,4.125 -1.167969,1.09375 -2.664062,1.640625 -4.484375,1.640625 l -30.9375,-46.984375 -0.546875,0.46875 2.265625,3.734375 V -5.375 c 0,1.96875 -0.617187,3.476562 -1.84375,4.515625 -1.21875,1.039063 -3.023437,1.5625 -5.40625,1.5625 z m 0,0"
             transform="translate(202.375,185.366)"
             id="path1193" />
        </g>
      </g>
    </g>
    <g
       fill="#322c4d"
       id="g1207">
      <g
         id="g1205">
        <g
           id="g1203">
          <path
             d="m 7.015625,-49.171875 c 0,-1.914063 0.632813,-3.40625 1.90625,-4.46875 C 10.191406,-54.710938 12,-55.25 14.34375,-55.25 v 49.875 c 0,1.917969 -0.640625,3.414062 -1.921875,4.484375 -1.273437,1.0625 -3.074219,1.59375 -5.40625,1.59375 z m 0,0"
             transform="translate(255.974,185.366)"
             id="path1201" />
        </g>
      </g>
    </g>
    <g
       fill="#322c4d"
       id="g1215">
      <g
         id="g1213">
        <g
           id="g1211">
          <path
             d="M 7.5625,0.703125 C 5.945312,0.703125 4.59375,0.15625 3.5,-0.9375 L 22.90625,-28.125 4.515625,-53.921875 C 5.554688,-54.804688 6.832031,-55.25 8.34375,-55.25 c 1.082031,0 2.078125,0.210938 2.984375,0.625 0.914063,0.417969 1.632813,0.992188 2.15625,1.71875 l 13.09375,18.78125 -1.796875,2.40625 0.546875,0.390625 L 40.4375,-52.90625 c 0.519531,-0.726562 1.234375,-1.300781 2.140625,-1.71875 0.914063,-0.414062 1.914063,-0.625 3,-0.625 0.675781,0 1.363281,0.121094 2.0625,0.359375 0.707031,0.230469 1.296875,0.554687 1.765625,0.96875 L 31.015625,-28.125 50.421875,-0.9375 c -1.09375,1.09375 -2.449219,1.640625 -4.0625,1.640625 -0.9375,0 -1.808594,-0.226563 -2.609375,-0.671875 -0.804688,-0.4375 -1.492188,-1.046875 -2.0625,-1.828125 l -14.71875,-20.875 -14.734375,20.875 c -0.574219,0.78125 -1.261719,1.390625 -2.0625,1.828125 C 9.367188,0.476562 8.5,0.703125 7.5625,0.703125 Z m 0,0"
             transform="translate(277.32,185.366)"
             id="path1209" />
        </g>
      </g>
    </g>
  </g>
</svg>
