<?xml version="1.0" encoding="UTF-8" standalone="no"?>
<svg
   width="375"
   viewBox="0 0 375 375"
   height="375"
   version="1.0"
   id="svg150"
   sodipodi:docname="3.svg"
   inkscape:version="1.1 (c68e22c387, 2021-05-23)"
   xmlns:inkscape="http://www.inkscape.org/namespaces/inkscape"
   xmlns:sodipodi="http://sodipodi.sourceforge.net/DTD/sodipodi-0.dtd"
   xmlns="http://www.w3.org/2000/svg"
   xmlns:svg="http://www.w3.org/2000/svg">
  <defs
     id="defs154" />
  <sodipodi:namedview
     id="namedview152"
     pagecolor="#ffffff"
     bordercolor="#666666"
     borderopacity="1.0"
     inkscape:pageshadow="2"
     inkscape:pageopacity="0.0"
     inkscape:pagecheckerboard="0"
     showgrid="false"
     inkscape:zoom="1.4198704"
     inkscape:cx="191.56678"
     inkscape:cy="143.32294"
     inkscape:window-width="1920"
     inkscape:window-height="1017"
     inkscape:window-x="3832"
     inkscape:window-y="-8"
     inkscape:window-maximized="1"
     inkscape:current-layer="svg150" />
  <path
     fill="#FFF"
     d="M-37.5 -37.5H412.5V412.5H-37.5z"
     id="path2" />
  <g
     id="g1123">
    <g
       fill="#322C4D"
       id="g12">
      <g
         id="g10">
        <g
           id="g8">
          <path
             d="M 7.546875 -6.984375 L 4.734375 -6.984375 L 4.734375 0 L 3.078125 0 L 3.078125 -6.984375 L 0.28125 -6.984375 L 0.28125 -8.28125 L 7.546875 -8.28125 Z M 7.546875 -6.984375"
             transform="translate(101.133 240.125)"
             id="path6" />
        </g>
      </g>
    </g>
    <g
       fill="#322C4D"
       id="g20">
      <g
         id="g18">
        <g
           id="g16">
          <path
             d="M 7.046875 -1.3125 L 7.046875 0 L 1.0625 0 L 1.0625 -8.28125 L 6.921875 -8.28125 L 6.921875 -6.984375 L 2.71875 -6.984375 L 2.71875 -4.796875 L 6.625 -4.796875 L 6.625 -3.484375 L 2.71875 -3.484375 L 2.71875 -1.3125 Z M 7.046875 -1.3125"
             transform="translate(114.609 240.125)"
             id="path14" />
        </g>
      </g>
    </g>
    <g
       fill="#322C4D"
       id="g28">
      <g
         id="g26">
        <g
           id="g24">
          <path
             d="M 4.625 -8.453125 C 5.695312 -8.453125 6.535156 -8.1875 7.140625 -7.65625 C 7.753906 -7.132812 8.109375 -6.445312 8.203125 -5.59375 L 8.203125 -5.46875 L 6.546875 -5.46875 L 6.53125 -5.59375 C 6.3125 -6.675781 5.664062 -7.21875 4.59375 -7.21875 C 3.925781 -7.21875 3.382812 -6.945312 2.96875 -6.40625 C 2.5625 -5.863281 2.359375 -5.125 2.359375 -4.1875 C 2.359375 -3.1875 2.5625 -2.414062 2.96875 -1.875 C 3.382812 -1.332031 3.921875 -1.0625 4.578125 -1.0625 C 5.097656 -1.0625 5.519531 -1.207031 5.84375 -1.5 C 6.164062 -1.800781 6.378906 -2.21875 6.484375 -2.75 L 6.515625 -2.875 L 8.15625 -2.875 L 8.140625 -2.75 C 8.054688 -1.851562 7.691406 -1.140625 7.046875 -0.609375 C 6.398438 -0.0859375 5.550781 0.171875 4.5 0.171875 C 3.332031 0.171875 2.390625 -0.210938 1.671875 -0.984375 C 0.960938 -1.753906 0.609375 -2.789062 0.609375 -4.09375 C 0.609375 -5.414062 0.984375 -6.472656 1.734375 -7.265625 C 2.492188 -8.054688 3.457031 -8.453125 4.625 -8.453125 Z M 4.625 -8.453125"
             transform="translate(128 240.125)"
             id="path22" />
        </g>
      </g>
    </g>
    <g
       fill="#322C4D"
       id="g36">
      <g
         id="g34">
        <g
           id="g32">
          <path
             d="M 8.25 -8.28125 L 8.25 0 L 6.59375 0 L 6.59375 -3.390625 L 2.71875 -3.390625 L 2.71875 0 L 1.0625 0 L 1.0625 -8.28125 L 2.71875 -8.28125 L 2.71875 -4.71875 L 6.59375 -4.71875 L 6.59375 -8.28125 Z M 8.25 -8.28125"
             transform="translate(142.617 240.125)"
             id="path30" />
        </g>
      </g>
    </g>
    <g
       fill="#322C4D"
       id="g44">
      <g
         id="g42">
        <g
           id="g40">
          <path
             d="M 8.34375 0 L 6.078125 0 L 2.65625 -6.28125 C 2.695312 -5.53125 2.71875 -4.6875 2.71875 -3.75 L 2.71875 0 L 1.0625 0 L 1.0625 -8.28125 L 3.265625 -8.28125 L 6.75 -1.875 C 6.707031 -2.613281 6.6875 -3.476562 6.6875 -4.46875 L 6.6875 -8.28125 L 8.328125 -8.28125 Z M 8.34375 0"
             transform="translate(157.64 240.125)"
             id="path38" />
        </g>
      </g>
    </g>
    <g
       fill="#322C4D"
       id="g52">
      <g
         id="g50">
        <g
           id="g48">
          <path
             d="M 4.703125 -8.453125 C 5.960938 -8.453125 6.957031 -8.0625 7.6875 -7.28125 C 8.425781 -6.5 8.796875 -5.453125 8.796875 -4.140625 C 8.796875 -2.835938 8.425781 -1.789062 7.6875 -1 C 6.957031 -0.21875 5.960938 0.171875 4.703125 0.171875 C 3.441406 0.171875 2.441406 -0.21875 1.703125 -1 C 0.972656 -1.789062 0.609375 -2.835938 0.609375 -4.140625 C 0.609375 -5.453125 0.972656 -6.5 1.703125 -7.28125 C 2.429688 -8.0625 3.429688 -8.453125 4.703125 -8.453125 Z M 2.96875 -1.875 C 3.382812 -1.332031 3.960938 -1.0625 4.703125 -1.0625 C 5.441406 -1.0625 6.019531 -1.332031 6.4375 -1.875 C 6.851562 -2.425781 7.0625 -3.179688 7.0625 -4.140625 C 7.0625 -5.109375 6.851562 -5.863281 6.4375 -6.40625 C 6.019531 -6.945312 5.441406 -7.21875 4.703125 -7.21875 C 3.960938 -7.21875 3.382812 -6.945312 2.96875 -6.40625 C 2.550781 -5.863281 2.34375 -5.109375 2.34375 -4.140625 C 2.34375 -3.171875 2.550781 -2.414062 2.96875 -1.875 Z M 2.96875 -1.875"
             transform="translate(172.76 240.125)"
             id="path46" />
        </g>
      </g>
    </g>
    <g
       fill="#322C4D"
       id="g60">
      <g
         id="g58">
        <g
           id="g56">
          <path
             d="M 7.046875 -1.375 L 7.046875 0 L 1.0625 0 L 1.0625 -8.28125 L 2.71875 -8.28125 L 2.71875 -1.375 Z M 7.046875 -1.375"
             transform="translate(187.94 240.125)"
             id="path54" />
        </g>
      </g>
    </g>
    <g
       fill="#322C4D"
       id="g68">
      <g
         id="g66">
        <g
           id="g64">
          <path
             d="M 4.703125 -8.453125 C 5.960938 -8.453125 6.957031 -8.0625 7.6875 -7.28125 C 8.425781 -6.5 8.796875 -5.453125 8.796875 -4.140625 C 8.796875 -2.835938 8.425781 -1.789062 7.6875 -1 C 6.957031 -0.21875 5.960938 0.171875 4.703125 0.171875 C 3.441406 0.171875 2.441406 -0.21875 1.703125 -1 C 0.972656 -1.789062 0.609375 -2.835938 0.609375 -4.140625 C 0.609375 -5.453125 0.972656 -6.5 1.703125 -7.28125 C 2.429688 -8.0625 3.429688 -8.453125 4.703125 -8.453125 Z M 2.96875 -1.875 C 3.382812 -1.332031 3.960938 -1.0625 4.703125 -1.0625 C 5.441406 -1.0625 6.019531 -1.332031 6.4375 -1.875 C 6.851562 -2.425781 7.0625 -3.179688 7.0625 -4.140625 C 7.0625 -5.109375 6.851562 -5.863281 6.4375 -6.40625 C 6.019531 -6.945312 5.441406 -7.21875 4.703125 -7.21875 C 3.960938 -7.21875 3.382812 -6.945312 2.96875 -6.40625 C 2.550781 -5.863281 2.34375 -5.109375 2.34375 -4.140625 C 2.34375 -3.171875 2.550781 -2.414062 2.96875 -1.875 Z M 2.96875 -1.875"
             transform="translate(201.189 240.125)"
             id="path62" />
        </g>
      </g>
    </g>
    <g
       fill="#322C4D"
       id="g76">
      <g
         id="g74">
        <g
           id="g72">
          <path
             d="M 4.859375 -4.21875 L 8.203125 -4.21875 L 8.203125 0 L 6.859375 0 L 6.75 -1.34375 L 6.390625 -0.5 C 5.929688 -0.0507812 5.257812 0.171875 4.375 0.171875 C 3.21875 0.171875 2.300781 -0.207031 1.625 -0.96875 C 0.945312 -1.738281 0.609375 -2.78125 0.609375 -4.09375 C 0.609375 -5.414062 0.992188 -6.472656 1.765625 -7.265625 C 2.535156 -8.054688 3.507812 -8.453125 4.6875 -8.453125 C 5.769531 -8.453125 6.613281 -8.1875 7.21875 -7.65625 C 7.832031 -7.132812 8.179688 -6.445312 8.265625 -5.59375 L 8.28125 -5.46875 L 6.625 -5.46875 L 6.59375 -5.59375 C 6.382812 -6.675781 5.742188 -7.21875 4.671875 -7.21875 C 3.984375 -7.21875 3.425781 -6.941406 3 -6.390625 C 2.570312 -5.847656 2.359375 -5.113281 2.359375 -4.1875 C 2.359375 -3.1875 2.566406 -2.414062 2.984375 -1.875 C 3.398438 -1.332031 3.945312 -1.0625 4.625 -1.0625 C 5.15625 -1.0625 5.597656 -1.222656 5.953125 -1.546875 C 6.304688 -1.878906 6.523438 -2.335938 6.609375 -2.921875 L 4.859375 -2.921875 Z M 4.859375 -4.21875"
             transform="translate(216.369 240.125)"
             id="path70" />
        </g>
      </g>
    </g>
    <g
       fill="#322C4D"
       id="g84">
      <g
         id="g82">
        <g
           id="g80">
          <path
             d="M 2.71875 0 L 1.0625 0 L 1.0625 -8.28125 L 2.71875 -8.28125 Z M 2.71875 0"
             transform="translate(231.213 240.125)"
             id="path78" />
        </g>
      </g>
    </g>
    <g
       fill="#322C4D"
       id="g92">
      <g
         id="g90">
        <g
           id="g88">
          <path
             d="M 7.046875 -1.3125 L 7.046875 0 L 1.0625 0 L 1.0625 -8.28125 L 6.921875 -8.28125 L 6.921875 -6.984375 L 2.71875 -6.984375 L 2.71875 -4.796875 L 6.625 -4.796875 L 6.625 -3.484375 L 2.71875 -3.484375 L 2.71875 -1.3125 Z M 7.046875 -1.3125"
             transform="translate(240.717 240.125)"
             id="path86" />
        </g>
      </g>
    </g>
    <g
       fill="#322C4D"
       id="g100">
      <g
         id="g98">
        <g
           id="g96">
          <path
             d="M 3.8125 -8.453125 C 4.757812 -8.453125 5.484375 -8.210938 5.984375 -7.734375 C 6.484375 -7.265625 6.78125 -6.632812 6.875 -5.84375 L 5.1875 -5.84375 C 5.132812 -6.269531 4.988281 -6.601562 4.75 -6.84375 C 4.507812 -7.09375 4.175781 -7.21875 3.75 -7.21875 C 3.40625 -7.21875 3.125 -7.128906 2.90625 -6.953125 C 2.695312 -6.785156 2.59375 -6.546875 2.59375 -6.234375 C 2.59375 -5.878906 2.722656 -5.597656 2.984375 -5.390625 C 3.242188 -5.191406 3.703125 -5.019531 4.359375 -4.875 C 5.265625 -4.664062 5.929688 -4.347656 6.359375 -3.921875 C 6.785156 -3.492188 7 -2.945312 7 -2.28125 C 7 -1.53125 6.703125 -0.929688 6.109375 -0.484375 C 5.515625 -0.046875 4.789062 0.171875 3.9375 0.171875 C 2.925781 0.171875 2.117188 -0.046875 1.515625 -0.484375 C 0.921875 -0.929688 0.582031 -1.585938 0.5 -2.453125 L 2.203125 -2.453125 C 2.285156 -2.003906 2.484375 -1.660156 2.796875 -1.421875 C 3.109375 -1.179688 3.476562 -1.0625 3.90625 -1.0625 C 4.289062 -1.0625 4.613281 -1.15625 4.875 -1.34375 C 5.132812 -1.539062 5.265625 -1.796875 5.265625 -2.109375 C 5.265625 -2.460938 5.140625 -2.742188 4.890625 -2.953125 C 4.640625 -3.171875 4.210938 -3.351562 3.609375 -3.5 C 2.679688 -3.726562 1.988281 -4.023438 1.53125 -4.390625 C 1.082031 -4.765625 0.859375 -5.3125 0.859375 -6.03125 C 0.859375 -6.757812 1.144531 -7.34375 1.71875 -7.78125 C 2.289062 -8.226562 2.988281 -8.453125 3.8125 -8.453125 Z M 3.8125 -8.453125"
             transform="translate(254.109 240.125)"
             id="path94" />
        </g>
      </g>
    </g>
    <g
       fill="#322C4D"
       id="g108">
      <g
         id="g106">
        <g
           id="g104">
          <path
             d="M 7.5625 0.703125 C 5.945312 0.703125 4.59375 0.15625 3.5 -0.9375 L 22.90625 -28.125 L 4.515625 -53.921875 C 5.554688 -54.804688 6.832031 -55.25 8.34375 -55.25 C 9.425781 -55.25 10.421875 -55.039062 11.328125 -54.625 C 12.242188 -54.207031 12.960938 -53.632812 13.484375 -52.90625 L 26.578125 -34.125 L 24.78125 -31.71875 L 25.328125 -31.328125 L 40.4375 -52.90625 C 40.957031 -53.632812 41.671875 -54.207031 42.578125 -54.625 C 43.492188 -55.039062 44.492188 -55.25 45.578125 -55.25 C 46.253906 -55.25 46.941406 -55.128906 47.640625 -54.890625 C 48.347656 -54.660156 48.9375 -54.335938 49.40625 -53.921875 L 31.015625 -28.125 L 50.421875 -0.9375 C 49.328125 0.15625 47.972656 0.703125 46.359375 0.703125 C 45.421875 0.703125 44.550781 0.476562 43.75 0.03125 C 42.945312 -0.40625 42.257812 -1.015625 41.6875 -1.796875 L 26.96875 -22.671875 L 12.234375 -1.796875 C 11.660156 -1.015625 10.972656 -0.40625 10.171875 0.03125 C 9.367188 0.476562 8.5 0.703125 7.5625 0.703125 Z M 7.5625 0.703125"
             transform="translate(43.758 185.366)"
             id="path102" />
        </g>
      </g>
    </g>
    <g
       fill="#322C4D"
       id="g116">
      <g
         id="g114">
        <g
           id="g112">
          <path
             d="M 8.5 0.703125 C 6.9375 0.390625 5.710938 -0.269531 4.828125 -1.28125 C 3.941406 -2.300781 3.5 -3.535156 3.5 -4.984375 C 3.5 -5.972656 3.734375 -7.015625 4.203125 -8.109375 L 22.828125 -52.90625 C 23.453125 -54.46875 24.648438 -55.25 26.421875 -55.25 C 28.078125 -55.25 29.242188 -54.46875 29.921875 -52.90625 L 48.546875 -8.109375 C 49.015625 -7.015625 49.25 -5.972656 49.25 -4.984375 C 49.25 -3.585938 48.804688 -2.367188 47.921875 -1.328125 C 47.035156 -0.285156 45.816406 0.390625 44.265625 0.703125 L 37.5625 -15.578125 L 15.1875 -15.578125 Z M 35.296875 -21.890625 L 25.25 -47.375 L 24.625 -47.140625 L 26.03125 -43.5625 L 17.453125 -21.890625 Z M 35.296875 -21.890625"
             transform="translate(97.669 185.366)"
             id="path110" />
        </g>
      </g>
    </g>
    <g
       fill="#322C4D"
       id="g124">
      <g
         id="g122">
        <g
           id="g120">
          <path
             d="M 25.953125 0.703125 C 21.640625 0.703125 17.78125 -0.140625 14.375 -1.828125 C 10.96875 -3.515625 8.300781 -5.851562 6.375 -8.84375 C 4.457031 -11.832031 3.5 -15.144531 3.5 -18.78125 L 3.5 -35.921875 C 3.5 -39.554688 4.457031 -42.84375 6.375 -45.78125 C 8.300781 -48.71875 10.96875 -51.03125 14.375 -52.71875 C 17.78125 -54.40625 21.640625 -55.25 25.953125 -55.25 C 30.316406 -55.25 34.195312 -54.40625 37.59375 -52.71875 C 41 -51.03125 43.660156 -48.71875 45.578125 -45.78125 C 47.503906 -42.84375 48.46875 -39.554688 48.46875 -35.921875 L 48.46875 -18.78125 C 48.46875 -15.144531 47.503906 -11.832031 45.578125 -8.84375 C 43.660156 -5.851562 40.988281 -3.515625 37.5625 -1.828125 C 34.132812 -0.140625 30.265625 0.703125 25.953125 0.703125 Z M 25.953125 -5.6875 C 30.773438 -5.6875 34.535156 -6.878906 37.234375 -9.265625 C 39.941406 -11.660156 41.296875 -14.859375 41.296875 -18.859375 L 41.296875 -35.765625 C 41.296875 -39.765625 39.941406 -42.945312 37.234375 -45.3125 C 34.535156 -47.675781 30.773438 -48.859375 25.953125 -48.859375 C 21.171875 -48.859375 17.425781 -47.675781 14.71875 -45.3125 C 12.019531 -42.945312 10.671875 -39.765625 10.671875 -35.765625 L 10.671875 -18.859375 C 10.671875 -14.859375 12.019531 -11.660156 14.71875 -9.265625 C 17.425781 -6.878906 21.171875 -5.6875 25.953125 -5.6875 Z M 25.953125 -5.6875"
             transform="translate(150.411 185.366)"
             id="path118" />
        </g>
      </g>
    </g>
    <g
       fill="#322C4D"
       id="g132">
      <g
         id="g130">
        <g
           id="g128">
          <path
             d="M 5.453125 -48.9375 C 5.453125 -50.90625 6.0625 -52.445312 7.28125 -53.5625 C 8.5 -54.6875 10.203125 -55.25 12.390625 -55.25 L 42.625 -9.265625 L 43.171875 -9.734375 L 40.90625 -13.484375 L 40.90625 -55.25 C 43.300781 -55.25 45.109375 -54.726562 46.328125 -53.6875 C 47.546875 -52.644531 48.15625 -51.140625 48.15625 -49.171875 L 48.15625 -5.0625 C 48.15625 -3.40625 47.570312 -2.03125 46.40625 -0.9375 C 45.238281 0.15625 43.742188 0.703125 41.921875 0.703125 L 10.984375 -46.28125 L 10.4375 -45.8125 L 12.703125 -42.078125 L 12.703125 -5.375 C 12.703125 -3.40625 12.085938 -1.898438 10.859375 -0.859375 C 9.640625 0.179688 7.835938 0.703125 5.453125 0.703125 Z M 5.453125 -48.9375"
             transform="translate(202.375 185.366)"
             id="path126" />
        </g>
      </g>
    </g>
    <g
       fill="#322C4D"
       id="g140">
      <g
         id="g138">
        <g
           id="g136">
          <path
             d="M 7.015625 -49.171875 C 7.015625 -51.085938 7.648438 -52.578125 8.921875 -53.640625 C 10.191406 -54.710938 12 -55.25 14.34375 -55.25 L 14.34375 -5.375 C 14.34375 -3.457031 13.703125 -1.960938 12.421875 -0.890625 C 11.148438 0.171875 9.347656 0.703125 7.015625 0.703125 Z M 7.015625 -49.171875"
             transform="translate(255.974 185.366)"
             id="path134" />
        </g>
      </g>
    </g>
    <g
       fill="#322C4D"
       id="g148">
      <g
         id="g146">
        <g
           id="g144">
          <path
             d="M 7.5625 0.703125 C 5.945312 0.703125 4.59375 0.15625 3.5 -0.9375 L 22.90625 -28.125 L 4.515625 -53.921875 C 5.554688 -54.804688 6.832031 -55.25 8.34375 -55.25 C 9.425781 -55.25 10.421875 -55.039062 11.328125 -54.625 C 12.242188 -54.207031 12.960938 -53.632812 13.484375 -52.90625 L 26.578125 -34.125 L 24.78125 -31.71875 L 25.328125 -31.328125 L 40.4375 -52.90625 C 40.957031 -53.632812 41.671875 -54.207031 42.578125 -54.625 C 43.492188 -55.039062 44.492188 -55.25 45.578125 -55.25 C 46.253906 -55.25 46.941406 -55.128906 47.640625 -54.890625 C 48.347656 -54.660156 48.9375 -54.335938 49.40625 -53.921875 L 31.015625 -28.125 L 50.421875 -0.9375 C 49.328125 0.15625 47.972656 0.703125 46.359375 0.703125 C 45.421875 0.703125 44.550781 0.476562 43.75 0.03125 C 42.945312 -0.40625 42.257812 -1.015625 41.6875 -1.796875 L 26.96875 -22.671875 L 12.234375 -1.796875 C 11.660156 -1.015625 10.972656 -0.40625 10.171875 0.03125 C 9.367188 0.476562 8.5 0.703125 7.5625 0.703125 Z M 7.5625 0.703125"
             transform="translate(277.32 185.366)"
             id="path142" />
        </g>
      </g>
    </g>
  </g>
</svg>
