<?xml version="1.0" encoding="UTF-8" standalone="no"?>
<svg
   width="285"
   viewBox="0 0 285 85"
   height="85"
   version="1.0"
   id="svg150"
   sodipodi:docname="xaonix.svg"
   inkscape:version="1.1 (c68e22c387, 2021-05-23)"
   xmlns:inkscape="http://www.inkscape.org/namespaces/inkscape"
   xmlns:sodipodi="http://sodipodi.sourceforge.net/DTD/sodipodi-0.dtd"
   xmlns="http://www.w3.org/2000/svg"
   xmlns:svg="http://www.w3.org/2000/svg">
  <defs
     id="defs154" />
  <sodipodi:namedview
     id="namedview152"
     pagecolor="#ffffff"
     bordercolor="#666666"
     borderopacity="1.0"
     inkscape:pageshadow="2"
     inkscape:pageopacity="0.0"
     inkscape:pagecheckerboard="0"
     showgrid="false"
     inkscape:zoom="1.4198704"
     inkscape:cx="35.214482"
     inkscape:cy="107.40417"
     inkscape:window-width="1920"
     inkscape:window-height="1017"
     inkscape:window-x="3832"
     inkscape:window-y="-8"
     inkscape:window-maximized="1"
     inkscape:current-layer="svg150"
     width="285px" />
  <g
     id="g1322"
     transform="translate(-27.61249)"
     style="fill:#f9f9f9">
    <g
       id="g106"
       transform="matrix(0.76861015,0,0,0.76861015,-8.7104883,-76.513126)"
       style="fill:#f9f9f9">
      <g
         id="g104"
         style="fill:#f9f9f9">
        <path
           d="M 7.5625,0.703125 C 5.945312,0.703125 4.59375,0.15625 3.5,-0.9375 L 22.90625,-28.125 4.515625,-53.921875 C 5.554688,-54.804688 6.832031,-55.25 8.34375,-55.25 c 1.082031,0 2.078125,0.210938 2.984375,0.625 0.914063,0.417969 1.632813,0.992188 2.15625,1.71875 l 13.09375,18.78125 -1.796875,2.40625 0.546875,0.390625 L 40.4375,-52.90625 c 0.519531,-0.726562 1.234375,-1.300781 2.140625,-1.71875 0.914063,-0.414062 1.914063,-0.625 3,-0.625 0.675781,0 1.363281,0.121094 2.0625,0.359375 0.707031,0.230469 1.296875,0.554687 1.765625,0.96875 L 31.015625,-28.125 50.421875,-0.9375 c -1.09375,1.09375 -2.449219,1.640625 -4.0625,1.640625 -0.9375,0 -1.808594,-0.226563 -2.609375,-0.671875 -0.804688,-0.4375 -1.492188,-1.046875 -2.0625,-1.828125 l -14.71875,-20.875 -14.734375,20.875 c -0.574219,0.78125 -1.261719,1.390625 -2.0625,1.828125 C 9.367188,0.476562 8.5,0.703125 7.5625,0.703125 Z m 0,0"
           transform="translate(43.758,185.366)"
           id="path102"
           style="fill:#f9f9f9" />
      </g>
    </g>
    <g
       id="g114"
       transform="matrix(0.76861015,0,0,0.76861015,-8.7104883,-76.513126)"
       style="fill:#f9f9f9">
      <g
         id="g112"
         style="fill:#f9f9f9">
        <path
           d="M 8.5,0.703125 C 6.9375,0.390625 5.710938,-0.269531 4.828125,-1.28125 3.941406,-2.300781 3.5,-3.535156 3.5,-4.984375 c 0,-0.988281 0.234375,-2.03125 0.703125,-3.125 l 18.625,-44.796875 c 0.625,-1.5625 1.820313,-2.34375 3.59375,-2.34375 1.65625,0 2.820313,0.78125 3.5,2.34375 l 18.625,44.796875 c 0.46875,1.09375 0.703125,2.136719 0.703125,3.125 0,1.398437 -0.445312,2.617187 -1.328125,3.65625 -0.886719,1.042969 -2.105469,1.71875 -3.65625,2.03125 L 37.5625,-15.578125 H 15.1875 Z M 35.296875,-21.890625 25.25,-47.375 l -0.625,0.234375 1.40625,3.578125 -8.578125,21.671875 z m 0,0"
           transform="translate(97.669,185.366)"
           id="path110"
           style="fill:#f9f9f9" />
      </g>
    </g>
    <g
       id="g122"
       transform="matrix(0.76861015,0,0,0.76861015,-8.7104883,-76.513126)"
       style="fill:#f9f9f9">
      <g
         id="g120"
         style="fill:#f9f9f9">
        <path
           d="m 25.953125,0.703125 c -4.3125,0 -8.171875,-0.84375 -11.578125,-2.53125 -3.40625,-1.6875 -6.074219,-4.023437 -8,-7.015625 C 4.457031,-11.832031 3.5,-15.144531 3.5,-18.78125 v -17.140625 c 0,-3.632813 0.957031,-6.921875 2.875,-9.859375 1.925781,-2.9375 4.59375,-5.25 8,-6.9375 3.40625,-1.6875 7.265625,-2.53125 11.578125,-2.53125 4.363281,0 8.242187,0.84375 11.640625,2.53125 3.40625,1.6875 6.066406,4 7.984375,6.9375 1.925781,2.9375 2.890625,6.226562 2.890625,9.859375 v 17.140625 c 0,3.636719 -0.964844,6.949219 -2.890625,9.9375 -1.917969,2.992188 -4.589844,5.328125 -8.015625,7.015625 -3.429688,1.6875 -7.296875,2.53125 -11.609375,2.53125 z m 0,-6.390625 c 4.820313,0 8.582031,-1.191406 11.28125,-3.578125 2.707031,-2.394531 4.0625,-5.59375 4.0625,-9.59375 v -16.90625 c 0,-4 -1.355469,-7.179687 -4.0625,-9.546875 -2.699219,-2.363281 -6.460937,-3.546875 -11.28125,-3.546875 -4.78125,0 -8.527344,1.183594 -11.234375,3.546875 -2.699219,2.367188 -4.046875,5.546875 -4.046875,9.546875 v 16.90625 c 0,4 1.347656,7.199219 4.046875,9.59375 2.707031,2.386719 6.453125,3.578125 11.234375,3.578125 z m 0,0"
           transform="translate(150.411,185.366)"
           id="path118"
           style="fill:#f9f9f9" />
      </g>
    </g>
    <g
       id="g130"
       transform="matrix(0.76861015,0,0,0.76861015,-8.7104883,-76.513126)"
       style="fill:#f9f9f9">
      <g
         id="g128"
         style="fill:#f9f9f9">
        <path
           d="m 5.453125,-48.9375 c 0,-1.96875 0.609375,-3.507812 1.828125,-4.625 C 8.5,-54.6875 10.203125,-55.25 12.390625,-55.25 L 42.625,-9.265625 l 0.546875,-0.46875 -2.265625,-3.75 V -55.25 c 2.394531,0 4.203125,0.523438 5.421875,1.5625 1.21875,1.042969 1.828125,2.546875 1.828125,4.515625 V -5.0625 c 0,1.65625 -0.585938,3.03125 -1.75,4.125 -1.167969,1.09375 -2.664062,1.640625 -4.484375,1.640625 l -30.9375,-46.984375 -0.546875,0.46875 2.265625,3.734375 V -5.375 c 0,1.96875 -0.617187,3.476562 -1.84375,4.515625 -1.21875,1.039063 -3.023437,1.5625 -5.40625,1.5625 z m 0,0"
           transform="translate(202.375,185.366)"
           id="path126"
           style="fill:#f9f9f9" />
      </g>
    </g>
    <g
       id="g138"
       transform="matrix(0.76861015,0,0,0.76861015,-8.7104883,-76.513126)"
       style="fill:#f9f9f9">
      <g
         id="g136"
         style="fill:#f9f9f9">
        <path
           d="m 7.015625,-49.171875 c 0,-1.914063 0.632813,-3.40625 1.90625,-4.46875 C 10.191406,-54.710938 12,-55.25 14.34375,-55.25 v 49.875 c 0,1.917969 -0.640625,3.414062 -1.921875,4.484375 -1.273437,1.0625 -3.074219,1.59375 -5.40625,1.59375 z m 0,0"
           transform="translate(255.974,185.366)"
           id="path134"
           style="fill:#f9f9f9" />
      </g>
    </g>
    <g
       id="g146"
       transform="matrix(0.76861015,0,0,0.76861015,-8.7104883,-76.513126)"
       style="fill:#f9f9f9">
      <g
         id="g144"
         style="fill:#f9f9f9">
        <path
           d="M 7.5625,0.703125 C 5.945312,0.703125 4.59375,0.15625 3.5,-0.9375 L 22.90625,-28.125 4.515625,-53.921875 C 5.554688,-54.804688 6.832031,-55.25 8.34375,-55.25 c 1.082031,0 2.078125,0.210938 2.984375,0.625 0.914063,0.417969 1.632813,0.992188 2.15625,1.71875 l 13.09375,18.78125 -1.796875,2.40625 0.546875,0.390625 L 40.4375,-52.90625 c 0.519531,-0.726562 1.234375,-1.300781 2.140625,-1.71875 0.914063,-0.414062 1.914063,-0.625 3,-0.625 0.675781,0 1.363281,0.121094 2.0625,0.359375 0.707031,0.230469 1.296875,0.554687 1.765625,0.96875 L 31.015625,-28.125 50.421875,-0.9375 c -1.09375,1.09375 -2.449219,1.640625 -4.0625,1.640625 -0.9375,0 -1.808594,-0.226563 -2.609375,-0.671875 -0.804688,-0.4375 -1.492188,-1.046875 -2.0625,-1.828125 l -14.71875,-20.875 -14.734375,20.875 c -0.574219,0.78125 -1.261719,1.390625 -2.0625,1.828125 C 9.367188,0.476562 8.5,0.703125 7.5625,0.703125 Z m 0,0"
           transform="translate(277.32,185.366)"
           id="path142"
           style="fill:#f9f9f9" />
      </g>
    </g>
  </g>
</svg>
